<svg xmlns="http://www.w3.org/2000/svg" width="48" height="48" viewBox="0 0 48 48">
  <defs>
    <style>
      .cls-1 {
        fill: #fff;
        fill-rule: evenodd;
      }
    </style>
  </defs>
  <path id="icon" class="cls-1" d="M67.275,797.358c-0.169-2.354-.361-5.27-0.371-6.45a5.746,5.746,0,0,0-2.319-4.683c8.531-.728,12.591-5.531,12.882-11.876A11.989,11.989,0,0,0,73.794,765a52.343,52.343,0,0,0-.254-7.424c-1.924-.563-6.409,1.85-7.664,2.882-2.643-1.045-9.114-1.413-13.047,0-2.788-2-5.962-3.23-7.691-2.886a9.524,9.524,0,0,0-.258,7.416c-2.057,1.914-4.926,4.271-4.147,9.2,1.25,7.236,6.249,11.139,14.3,12.094a2.639,2.639,0,0,0-2.151,2.227c-5.406,2.272-6.95-1.4-7.634-2.36-2.269-2.859-4.3-2.029-4.431-1.984a0.365,0.365,0,0,0-.2.313,3.209,3.209,0,0,0,1.41,1.294c1.674,1.27,2.294,3.568,2.676,4.22,2.4,4.021,7.985,2.354,8.038,2.387,0,0.351-.038,3.311-0.072,5.615A24.369,24.369,0,1,1,83,774.441,24.4,24.4,0,0,1,67.275,797.358Z" transform="translate(-35 -750)"/>
</svg>
