<svg xmlns="http://www.w3.org/2000/svg" width="48" height="38" viewBox="0 0 48 38">
  <defs>
    <style>
      .cls-1 {
        fill: #8d81ac;
        fill-rule: evenodd;
      }
    </style>
  </defs>
  <path id="bird" class="cls-1" d="M179.006,760.487A19.991,19.991,0,0,1,173.349,762a9.669,9.669,0,0,0,4.331-5.309,19.987,19.987,0,0,1-6.255,2.329,9.966,9.966,0,0,0-7.189-3.029,9.724,9.724,0,0,0-9.851,9.592,9.382,9.382,0,0,0,.255,2.186,28.218,28.218,0,0,1-20.3-10.023A9.371,9.371,0,0,0,133,762.569a9.525,9.525,0,0,0,4.382,7.983,9.986,9.986,0,0,1-4.462-1.2c0,0.041,0,.082,0,0.123a9.665,9.665,0,0,0,7.9,9.4,10.129,10.129,0,0,1-2.6.338,9.935,9.935,0,0,1-1.854-.174,9.83,9.83,0,0,0,9.2,6.662,20.1,20.1,0,0,1-12.234,4.107,20.932,20.932,0,0,1-2.349-.133,28.428,28.428,0,0,0,15.1,4.311A27.454,27.454,0,0,0,174.12,766.7c0-.415-0.009-0.831-0.028-1.241A19.673,19.673,0,0,0,179.006,760.487Z" transform="translate(-131 -756)"/>
</svg>
